<mxfile host="app.diagrams.net" modified="2021-09-18T07:31:49.683Z" agent="5.0 (Windows NT 10.0; Win64; x64) AppleWebKit/537.36 (KHTML, like Gecko) Chrome/93.0.4577.82 Safari/537.36" etag="CmQPYj9LyE6eMEjrGXmg" version="15.2.9" type="github">
  <diagram id="RIBd80FUKUe8Fdjv6PHt" name="Page-1">
    <mxGraphModel dx="677" dy="368" grid="1" gridSize="10" guides="1" tooltips="1" connect="1" arrows="1" fold="1" page="1" pageScale="1" pageWidth="827" pageHeight="1169" math="0" shadow="0">
      <root>
        <mxCell id="0" />
        <mxCell id="1" parent="0" />
        <mxCell id="SMshIJQcZR5f8V6Owy4w-4" style="edgeStyle=orthogonalEdgeStyle;rounded=0;orthogonalLoop=1;jettySize=auto;html=1;" parent="1" source="SMshIJQcZR5f8V6Owy4w-1" target="SMshIJQcZR5f8V6Owy4w-3" edge="1">
          <mxGeometry relative="1" as="geometry" />
        </mxCell>
        <mxCell id="SMshIJQcZR5f8V6Owy4w-1" value="服务端" style="rounded=1;whiteSpace=wrap;html=1;fillColor=#7D4BDE;fontColor=#FFFFFF;strokeColor=none;" parent="1" vertex="1">
          <mxGeometry x="140" y="350" width="120" height="60" as="geometry" />
        </mxCell>
        <mxCell id="SMshIJQcZR5f8V6Owy4w-3" value="浏览器" style="rounded=1;whiteSpace=wrap;html=1;glass=0;fontColor=#FFFFFF;strokeColor=none;shadow=0;sketch=0;gradientDirection=radial;fillColor=#71B7FF;" parent="1" vertex="1">
          <mxGeometry x="530" y="350" width="120" height="60" as="geometry" />
        </mxCell>
        <mxCell id="SMshIJQcZR5f8V6Owy4w-5" value="前20张卡片数据" style="ellipse;whiteSpace=wrap;html=1;aspect=fixed;rounded=1;shadow=0;glass=0;sketch=0;fontColor=#FFFFFF;fillColor=#71B7FF;gradientColor=none;gradientDirection=radial;strokeColor=none;" parent="1" vertex="1">
          <mxGeometry x="150" y="130" width="100" height="100" as="geometry" />
        </mxCell>
        <mxCell id="SMshIJQcZR5f8V6Owy4w-7" value="" style="endArrow=none;dashed=1;html=1;fontColor=#FFFFFF;entryX=0.5;entryY=1;entryDx=0;entryDy=0;exitX=0.5;exitY=0;exitDx=0;exitDy=0;startArrow=none;" parent="1" source="SMshIJQcZR5f8V6Owy4w-11" target="SMshIJQcZR5f8V6Owy4w-5" edge="1">
          <mxGeometry width="50" height="50" relative="1" as="geometry">
            <mxPoint x="390" y="410" as="sourcePoint" />
            <mxPoint x="440" y="360" as="targetPoint" />
          </mxGeometry>
        </mxCell>
        <mxCell id="SMshIJQcZR5f8V6Owy4w-8" value="剩余卡片数据" style="ellipse;whiteSpace=wrap;html=1;aspect=fixed;rounded=1;shadow=0;glass=0;sketch=0;fontColor=#FFFFFF;fillColor=#71B7FF;gradientColor=none;gradientDirection=radial;strokeColor=none;" parent="1" vertex="1">
          <mxGeometry x="540" y="140" width="100" height="100" as="geometry" />
        </mxCell>
        <mxCell id="SMshIJQcZR5f8V6Owy4w-10" value="" style="endArrow=none;dashed=1;html=1;fontColor=#FFFFFF;entryX=0.5;entryY=1;entryDx=0;entryDy=0;exitX=0.5;exitY=0;exitDx=0;exitDy=0;" parent="1" source="SMshIJQcZR5f8V6Owy4w-13" target="SMshIJQcZR5f8V6Owy4w-8" edge="1">
          <mxGeometry width="50" height="50" relative="1" as="geometry">
            <mxPoint x="390" y="410" as="sourcePoint" />
            <mxPoint x="440" y="360" as="targetPoint" />
          </mxGeometry>
        </mxCell>
        <mxCell id="SMshIJQcZR5f8V6Owy4w-11" value="服务端token" style="shape=hexagon;perimeter=hexagonPerimeter2;whiteSpace=wrap;html=1;fixedSize=1;rounded=1;shadow=0;glass=0;sketch=0;fontColor=#FFFFFF;fillColor=#71B7FF;gradientColor=none;gradientDirection=radial;strokeColor=none;" parent="1" vertex="1">
          <mxGeometry x="140" y="270" width="120" height="30" as="geometry" />
        </mxCell>
        <mxCell id="SMshIJQcZR5f8V6Owy4w-12" value="" style="endArrow=none;dashed=1;html=1;fontColor=#FFFFFF;entryX=0.5;entryY=1;entryDx=0;entryDy=0;exitX=0.5;exitY=0;exitDx=0;exitDy=0;" parent="1" source="SMshIJQcZR5f8V6Owy4w-1" target="SMshIJQcZR5f8V6Owy4w-11" edge="1">
          <mxGeometry width="50" height="50" relative="1" as="geometry">
            <mxPoint x="200" y="350" as="sourcePoint" />
            <mxPoint x="200" y="240" as="targetPoint" />
          </mxGeometry>
        </mxCell>
        <mxCell id="SMshIJQcZR5f8V6Owy4w-13" value="浏览器端token" style="shape=hexagon;perimeter=hexagonPerimeter2;whiteSpace=wrap;html=1;fixedSize=1;rounded=1;shadow=0;glass=0;sketch=0;fontColor=#FFFFFF;fillColor=#71B7FF;gradientColor=none;gradientDirection=radial;strokeColor=none;" parent="1" vertex="1">
          <mxGeometry x="530" y="280" width="120" height="30" as="geometry" />
        </mxCell>
        <mxCell id="SMshIJQcZR5f8V6Owy4w-14" value="" style="endArrow=none;dashed=1;html=1;fontColor=#FFFFFF;entryX=0.5;entryY=1;entryDx=0;entryDy=0;exitX=0.5;exitY=0;exitDx=0;exitDy=0;" parent="1" source="SMshIJQcZR5f8V6Owy4w-3" target="SMshIJQcZR5f8V6Owy4w-13" edge="1">
          <mxGeometry width="50" height="50" relative="1" as="geometry">
            <mxPoint x="390" y="410" as="sourcePoint" />
            <mxPoint x="440" y="360" as="targetPoint" />
          </mxGeometry>
        </mxCell>
        <mxCell id="SMshIJQcZR5f8V6Owy4w-15" value="&lt;font color=&quot;#7d4bde&quot; style=&quot;font-size: 16px&quot;&gt;&lt;b&gt;1s内&lt;/b&gt;&lt;/font&gt;" style="text;html=1;strokeColor=none;fillColor=none;align=center;verticalAlign=middle;whiteSpace=wrap;rounded=0;shadow=0;glass=0;sketch=0;fontColor=#FFFFFF;" parent="1" vertex="1">
          <mxGeometry x="360" y="350" width="70" height="30" as="geometry" />
        </mxCell>
        <mxCell id="mCiFhlR0i4A4N-Vy6XE6-4" style="edgeStyle=orthogonalEdgeStyle;rounded=0;orthogonalLoop=1;jettySize=auto;html=1;entryX=0.5;entryY=0;entryDx=0;entryDy=0;" edge="1" parent="1" source="mCiFhlR0i4A4N-Vy6XE6-1" target="mCiFhlR0i4A4N-Vy6XE6-3">
          <mxGeometry relative="1" as="geometry" />
        </mxCell>
        <mxCell id="mCiFhlR0i4A4N-Vy6XE6-1" value="Spider" style="ellipse;whiteSpace=wrap;html=1;aspect=fixed;" vertex="1" parent="1">
          <mxGeometry x="150" y="660" width="80" height="80" as="geometry" />
        </mxCell>
        <mxCell id="mCiFhlR0i4A4N-Vy6XE6-5" style="edgeStyle=orthogonalEdgeStyle;rounded=0;orthogonalLoop=1;jettySize=auto;html=1;entryX=0.5;entryY=0;entryDx=0;entryDy=0;" edge="1" parent="1" source="mCiFhlR0i4A4N-Vy6XE6-2" target="mCiFhlR0i4A4N-Vy6XE6-3">
          <mxGeometry relative="1" as="geometry" />
        </mxCell>
        <mxCell id="mCiFhlR0i4A4N-Vy6XE6-9" style="edgeStyle=orthogonalEdgeStyle;rounded=0;orthogonalLoop=1;jettySize=auto;html=1;entryX=0.5;entryY=0;entryDx=0;entryDy=0;" edge="1" parent="1" source="mCiFhlR0i4A4N-Vy6XE6-2" target="mCiFhlR0i4A4N-Vy6XE6-8">
          <mxGeometry relative="1" as="geometry" />
        </mxCell>
        <mxCell id="mCiFhlR0i4A4N-Vy6XE6-10" value="User Token" style="edgeLabel;html=1;align=center;verticalAlign=middle;resizable=0;points=[];" vertex="1" connectable="0" parent="mCiFhlR0i4A4N-Vy6XE6-9">
          <mxGeometry x="0.2034" y="1" relative="1" as="geometry">
            <mxPoint as="offset" />
          </mxGeometry>
        </mxCell>
        <mxCell id="mCiFhlR0i4A4N-Vy6XE6-2" value="User" style="ellipse;whiteSpace=wrap;html=1;aspect=fixed;" vertex="1" parent="1">
          <mxGeometry x="430" y="660" width="80" height="80" as="geometry" />
        </mxCell>
        <mxCell id="mCiFhlR0i4A4N-Vy6XE6-16" style="edgeStyle=orthogonalEdgeStyle;rounded=0;orthogonalLoop=1;jettySize=auto;html=1;entryX=0.5;entryY=0;entryDx=0;entryDy=0;" edge="1" parent="1" source="mCiFhlR0i4A4N-Vy6XE6-3" target="mCiFhlR0i4A4N-Vy6XE6-6">
          <mxGeometry relative="1" as="geometry" />
        </mxCell>
        <mxCell id="mCiFhlR0i4A4N-Vy6XE6-3" value="Page For SEO" style="whiteSpace=wrap;html=1;aspect=fixed;" vertex="1" parent="1">
          <mxGeometry x="280" y="790" width="80" height="80" as="geometry" />
        </mxCell>
        <mxCell id="mCiFhlR0i4A4N-Vy6XE6-14" style="edgeStyle=orthogonalEdgeStyle;rounded=0;orthogonalLoop=1;jettySize=auto;html=1;entryX=0;entryY=0.5;entryDx=0;entryDy=0;" edge="1" parent="1" source="mCiFhlR0i4A4N-Vy6XE6-6" target="mCiFhlR0i4A4N-Vy6XE6-7">
          <mxGeometry relative="1" as="geometry" />
        </mxCell>
        <mxCell id="mCiFhlR0i4A4N-Vy6XE6-15" value="SEO Token" style="edgeLabel;html=1;align=center;verticalAlign=middle;resizable=0;points=[];" vertex="1" connectable="0" parent="mCiFhlR0i4A4N-Vy6XE6-14">
          <mxGeometry x="0.2257" y="-1" relative="1" as="geometry">
            <mxPoint as="offset" />
          </mxGeometry>
        </mxCell>
        <mxCell id="mCiFhlR0i4A4N-Vy6XE6-6" value="SEO Server" style="rounded=1;whiteSpace=wrap;html=1;" vertex="1" parent="1">
          <mxGeometry x="260" y="940" width="120" height="60" as="geometry" />
        </mxCell>
        <mxCell id="mCiFhlR0i4A4N-Vy6XE6-7" value="Markji Server" style="rounded=1;whiteSpace=wrap;html=1;" vertex="1" parent="1">
          <mxGeometry x="550" y="940" width="120" height="60" as="geometry" />
        </mxCell>
        <mxCell id="mCiFhlR0i4A4N-Vy6XE6-11" style="edgeStyle=orthogonalEdgeStyle;rounded=0;orthogonalLoop=1;jettySize=auto;html=1;entryX=0.5;entryY=0;entryDx=0;entryDy=0;" edge="1" parent="1" source="mCiFhlR0i4A4N-Vy6XE6-8" target="mCiFhlR0i4A4N-Vy6XE6-7">
          <mxGeometry relative="1" as="geometry" />
        </mxCell>
        <mxCell id="mCiFhlR0i4A4N-Vy6XE6-12" value="User Token" style="edgeLabel;html=1;align=center;verticalAlign=middle;resizable=0;points=[];" vertex="1" connectable="0" parent="mCiFhlR0i4A4N-Vy6XE6-11">
          <mxGeometry x="0.0421" y="2" relative="1" as="geometry">
            <mxPoint as="offset" />
          </mxGeometry>
        </mxCell>
        <mxCell id="mCiFhlR0i4A4N-Vy6XE6-8" value="Page" style="whiteSpace=wrap;html=1;aspect=fixed;" vertex="1" parent="1">
          <mxGeometry x="570" y="790" width="80" height="80" as="geometry" />
        </mxCell>
      </root>
    </mxGraphModel>
  </diagram>
</mxfile>
